<?xml version="1.0" encoding="UTF-8" standalone="no"?>
<!DOCTYPE svg PUBLIC "-//W3C//DTD SVG 1.1//EN"
 "http://www.w3.org/Graphics/SVG/1.1/DTD/svg11.dtd">
<!-- Generated by graphviz version 2.40.1 (20161225.0304)
 -->
<!-- Title: controllers_diagram Pages: 1 -->
<svg width="852pt" height="807pt"
 viewBox="0.00 0.00 852.32 807.00" xmlns="http://www.w3.org/2000/svg" xmlns:xlink="http://www.w3.org/1999/xlink">
<g id="graph0" class="graph" transform="scale(1 1) rotate(0) translate(4 803)">
<title>controllers_diagram</title>
<polygon fill="transparent" stroke="transparent" points="-4,4 -4,-803 848.3242,-803 848.3242,4 -4,4"/>
<!-- _diagram_info -->
<g id="node1" class="node">
<title>_diagram_info</title>
<text text-anchor="start" x="504" y="-362.6" font-family="Times,serif" font-size="13.00" fill="#000000">Controllers diagram</text>
<text text-anchor="start" x="504" y="-349.6" font-family="Times,serif" font-size="13.00" fill="#000000">Date: Mar 18 2019 &#45; 10:40</text>
<text text-anchor="start" x="504" y="-336.6" font-family="Times,serif" font-size="13.00" fill="#000000">Migration version: 20190315141229</text>
<text text-anchor="start" x="504" y="-323.6" font-family="Times,serif" font-size="13.00" fill="#000000">Generated by RailRoady 1.5.3</text>
<text text-anchor="start" x="504" y="-310.6" font-family="Times,serif" font-size="13.00" fill="#000000">http://railroady.prestonlee.com</text>
</g>
<!-- Municipalities::OmniauthCallbacksController -->
<g id="node2" class="node">
<title>Municipalities::OmniauthCallbacksController</title>
<path fill="none" stroke="#000000" d="M204,-288.5C204,-288.5 453.4004,-288.5 453.4004,-288.5 459.4004,-288.5 465.4004,-294.5 465.4004,-300.5 465.4004,-300.5 465.4004,-368.5 465.4004,-368.5 465.4004,-374.5 459.4004,-380.5 453.4004,-380.5 453.4004,-380.5 204,-380.5 204,-380.5 198,-380.5 192,-374.5 192,-368.5 192,-368.5 192,-300.5 192,-300.5 192,-294.5 198,-288.5 204,-288.5"/>
<text text-anchor="middle" x="328.7002" y="-365.3" font-family="Times,serif" font-size="14.00" fill="#000000">Municipalities::OmniauthCallbacksController</text>
<polyline fill="none" stroke="#000000" points="192,-358.5 465.4004,-358.5 "/>
<polyline fill="none" stroke="#000000" points="192,-334.5 465.4004,-334.5 "/>
<polyline fill="none" stroke="#000000" points="192,-310.5 465.4004,-310.5 "/>
<text text-anchor="start" x="200" y="-295.3" font-family="Times,serif" font-size="14.00" fill="#000000">_layout</text>
</g>
<!-- Municipalities::PasswordsController -->
<g id="node3" class="node">
<title>Municipalities::PasswordsController</title>
<path fill="none" stroke="#000000" d="M556,-544.5C556,-544.5 753.3174,-544.5 753.3174,-544.5 759.3174,-544.5 765.3174,-550.5 765.3174,-556.5 765.3174,-556.5 765.3174,-624.5 765.3174,-624.5 765.3174,-630.5 759.3174,-636.5 753.3174,-636.5 753.3174,-636.5 556,-636.5 556,-636.5 550,-636.5 544,-630.5 544,-624.5 544,-624.5 544,-556.5 544,-556.5 544,-550.5 550,-544.5 556,-544.5"/>
<text text-anchor="middle" x="654.6587" y="-621.3" font-family="Times,serif" font-size="14.00" fill="#000000">Municipalities::PasswordsController</text>
<polyline fill="none" stroke="#000000" points="544,-614.5 765.3174,-614.5 "/>
<polyline fill="none" stroke="#000000" points="544,-590.5 765.3174,-590.5 "/>
<polyline fill="none" stroke="#000000" points="544,-566.5 765.3174,-566.5 "/>
<text text-anchor="start" x="552" y="-551.3" font-family="Times,serif" font-size="14.00" fill="#000000">_layout</text>
</g>
<!-- Municipalities::SessionsController -->
<g id="node4" class="node">
<title>Municipalities::SessionsController</title>
<path fill="none" stroke="#000000" d="M444,-48.5C444,-48.5 630.4346,-48.5 630.4346,-48.5 636.4346,-48.5 642.4346,-54.5 642.4346,-60.5 642.4346,-60.5 642.4346,-128.5 642.4346,-128.5 642.4346,-134.5 636.4346,-140.5 630.4346,-140.5 630.4346,-140.5 444,-140.5 444,-140.5 438,-140.5 432,-134.5 432,-128.5 432,-128.5 432,-60.5 432,-60.5 432,-54.5 438,-48.5 444,-48.5"/>
<text text-anchor="middle" x="537.2173" y="-125.3" font-family="Times,serif" font-size="14.00" fill="#000000">Municipalities::SessionsController</text>
<polyline fill="none" stroke="#000000" points="432,-118.5 642.4346,-118.5 "/>
<polyline fill="none" stroke="#000000" points="432,-94.5 642.4346,-94.5 "/>
<polyline fill="none" stroke="#000000" points="432,-70.5 642.4346,-70.5 "/>
<text text-anchor="start" x="440" y="-55.3" font-family="Times,serif" font-size="14.00" fill="#000000">_layout</text>
</g>
<!-- Municipalities::UnlocksController -->
<g id="node5" class="node">
<title>Municipalities::UnlocksController</title>
<path fill="none" stroke="#000000" d="M188,-496.5C188,-496.5 372.8623,-496.5 372.8623,-496.5 378.8623,-496.5 384.8623,-502.5 384.8623,-508.5 384.8623,-508.5 384.8623,-576.5 384.8623,-576.5 384.8623,-582.5 378.8623,-588.5 372.8623,-588.5 372.8623,-588.5 188,-588.5 188,-588.5 182,-588.5 176,-582.5 176,-576.5 176,-576.5 176,-508.5 176,-508.5 176,-502.5 182,-496.5 188,-496.5"/>
<text text-anchor="middle" x="280.4312" y="-573.3" font-family="Times,serif" font-size="14.00" fill="#000000">Municipalities::UnlocksController</text>
<polyline fill="none" stroke="#000000" points="176,-566.5 384.8623,-566.5 "/>
<polyline fill="none" stroke="#000000" points="176,-542.5 384.8623,-542.5 "/>
<polyline fill="none" stroke="#000000" points="176,-518.5 384.8623,-518.5 "/>
<text text-anchor="start" x="184" y="-503.3" font-family="Times,serif" font-size="14.00" fill="#000000">_layout</text>
</g>
<!-- Municipalities::ConfirmationsController -->
<g id="node6" class="node">
<title>Municipalities::ConfirmationsController</title>
<path fill="none" stroke="#000000" d="M428,-416.5C428,-416.5 646.3174,-416.5 646.3174,-416.5 652.3174,-416.5 658.3174,-422.5 658.3174,-428.5 658.3174,-428.5 658.3174,-496.5 658.3174,-496.5 658.3174,-502.5 652.3174,-508.5 646.3174,-508.5 646.3174,-508.5 428,-508.5 428,-508.5 422,-508.5 416,-502.5 416,-496.5 416,-496.5 416,-428.5 416,-428.5 416,-422.5 422,-416.5 428,-416.5"/>
<text text-anchor="middle" x="537.1587" y="-493.3" font-family="Times,serif" font-size="14.00" fill="#000000">Municipalities::ConfirmationsController</text>
<polyline fill="none" stroke="#000000" points="416,-486.5 658.3174,-486.5 "/>
<polyline fill="none" stroke="#000000" points="416,-462.5 658.3174,-462.5 "/>
<polyline fill="none" stroke="#000000" points="416,-438.5 658.3174,-438.5 "/>
<text text-anchor="start" x="424" y="-423.3" font-family="Times,serif" font-size="14.00" fill="#000000">_layout</text>
</g>
<!-- Municipalities::RegistrationsController -->
<g id="node7" class="node">
<title>Municipalities::RegistrationsController</title>
<path fill="none" stroke="#000000" d="M172,-160.5C172,-160.5 384.083,-160.5 384.083,-160.5 390.083,-160.5 396.083,-166.5 396.083,-172.5 396.083,-172.5 396.083,-238.5 396.083,-238.5 396.083,-244.5 390.083,-250.5 384.083,-250.5 384.083,-250.5 172,-250.5 172,-250.5 166,-250.5 160,-244.5 160,-238.5 160,-238.5 160,-172.5 160,-172.5 160,-166.5 166,-160.5 172,-160.5"/>
<text text-anchor="middle" x="278.0415" y="-235.3" font-family="Times,serif" font-size="14.00" fill="#000000">Municipalities::RegistrationsController</text>
<polyline fill="none" stroke="#000000" points="160,-228.5 396.083,-228.5 "/>
<text text-anchor="start" x="168" y="-213.3" font-family="Times,serif" font-size="14.00" fill="#000000">configure_sign_up_params</text>
<polyline fill="none" stroke="#000000" points="160,-206.5 396.083,-206.5 "/>
<polyline fill="none" stroke="#000000" points="160,-182.5 396.083,-182.5 "/>
<text text-anchor="start" x="168" y="-167.3" font-family="Times,serif" font-size="14.00" fill="#000000">_layout</text>
</g>
<!-- ApplicationController -->
<g id="node8" class="node">
<title>ApplicationController</title>
<path fill="none" stroke="#000000" d="M268,-32.5C268,-32.5 383.6416,-32.5 383.6416,-32.5 389.6416,-32.5 395.6416,-38.5 395.6416,-44.5 395.6416,-44.5 395.6416,-110.5 395.6416,-110.5 395.6416,-116.5 389.6416,-122.5 383.6416,-122.5 383.6416,-122.5 268,-122.5 268,-122.5 262,-122.5 256,-116.5 256,-110.5 256,-110.5 256,-44.5 256,-44.5 256,-38.5 262,-32.5 268,-32.5"/>
<text text-anchor="middle" x="325.8208" y="-107.3" font-family="Times,serif" font-size="14.00" fill="#000000">ApplicationController</text>
<polyline fill="none" stroke="#000000" points="256,-100.5 395.6416,-100.5 "/>
<text text-anchor="start" x="264" y="-85.3" font-family="Times,serif" font-size="14.00" fill="#000000">current_ability</text>
<polyline fill="none" stroke="#000000" points="256,-78.5 395.6416,-78.5 "/>
<polyline fill="none" stroke="#000000" points="256,-54.5 395.6416,-54.5 "/>
<text text-anchor="start" x="264" y="-39.3" font-family="Times,serif" font-size="14.00" fill="#000000">_layout</text>
</g>
<!-- ProyectsController -->
<g id="node9" class="node">
<title>ProyectsController</title>
<path fill="none" stroke="#000000" d="M172,-624.5C172,-624.5 269.7588,-624.5 269.7588,-624.5 275.7588,-624.5 281.7588,-630.5 281.7588,-636.5 281.7588,-636.5 281.7588,-786.5 281.7588,-786.5 281.7588,-792.5 275.7588,-798.5 269.7588,-798.5 269.7588,-798.5 172,-798.5 172,-798.5 166,-798.5 160,-792.5 160,-786.5 160,-786.5 160,-636.5 160,-636.5 160,-630.5 166,-624.5 172,-624.5"/>
<text text-anchor="middle" x="220.8794" y="-783.3" font-family="Times,serif" font-size="14.00" fill="#000000">ProyectsController</text>
<polyline fill="none" stroke="#000000" points="160,-776.5 281.7588,-776.5 "/>
<text text-anchor="start" x="168" y="-761.3" font-family="Times,serif" font-size="14.00" fill="#000000">create</text>
<text text-anchor="start" x="168" y="-747.3" font-family="Times,serif" font-size="14.00" fill="#000000">edit</text>
<text text-anchor="start" x="168" y="-733.3" font-family="Times,serif" font-size="14.00" fill="#000000">index</text>
<text text-anchor="start" x="168" y="-719.3" font-family="Times,serif" font-size="14.00" fill="#000000">show</text>
<text text-anchor="start" x="168" y="-705.3" font-family="Times,serif" font-size="14.00" fill="#000000">update</text>
<polyline fill="none" stroke="#000000" points="160,-698.5 281.7588,-698.5 "/>
<polyline fill="none" stroke="#000000" points="160,-674.5 281.7588,-674.5 "/>
<text text-anchor="start" x="168" y="-659.3" font-family="Times,serif" font-size="14.00" fill="#000000">_layout</text>
<text text-anchor="start" x="168" y="-645.3" font-family="Times,serif" font-size="14.00" fill="#000000">proyect_params</text>
<text text-anchor="start" x="168" y="-631.3" font-family="Times,serif" font-size="14.00" fill="#000000">set_proyect</text>
</g>
<!-- FeedbacksController -->
<g id="node10" class="node">
<title>FeedbacksController</title>
<path fill="none" stroke="#000000" d="M28,-496.5C28,-496.5 136.6348,-496.5 136.6348,-496.5 142.6348,-496.5 148.6348,-502.5 148.6348,-508.5 148.6348,-508.5 148.6348,-574.5 148.6348,-574.5 148.6348,-580.5 142.6348,-586.5 136.6348,-586.5 136.6348,-586.5 28,-586.5 28,-586.5 22,-586.5 16,-580.5 16,-574.5 16,-574.5 16,-508.5 16,-508.5 16,-502.5 22,-496.5 28,-496.5"/>
<text text-anchor="middle" x="82.3174" y="-571.3" font-family="Times,serif" font-size="14.00" fill="#000000">FeedbacksController</text>
<polyline fill="none" stroke="#000000" points="16,-564.5 148.6348,-564.5 "/>
<text text-anchor="start" x="24" y="-549.3" font-family="Times,serif" font-size="14.00" fill="#000000">create</text>
<polyline fill="none" stroke="#000000" points="16,-542.5 148.6348,-542.5 "/>
<polyline fill="none" stroke="#000000" points="16,-518.5 148.6348,-518.5 "/>
<text text-anchor="start" x="24" y="-503.3" font-family="Times,serif" font-size="14.00" fill="#000000">_layout</text>
</g>
<!-- Users::OmniauthCallbacksController -->
<g id="node11" class="node">
<title>Users::OmniauthCallbacksController</title>
<path fill="none" stroke="#000000" d="M508,-176.5C508,-176.5 708.4072,-176.5 708.4072,-176.5 714.4072,-176.5 720.4072,-182.5 720.4072,-188.5 720.4072,-188.5 720.4072,-254.5 720.4072,-254.5 720.4072,-260.5 714.4072,-266.5 708.4072,-266.5 708.4072,-266.5 508,-266.5 508,-266.5 502,-266.5 496,-260.5 496,-254.5 496,-254.5 496,-188.5 496,-188.5 496,-182.5 502,-176.5 508,-176.5"/>
<text text-anchor="middle" x="608.2036" y="-251.3" font-family="Times,serif" font-size="14.00" fill="#000000">Users::OmniauthCallbacksController</text>
<polyline fill="none" stroke="#000000" points="496,-244.5 720.4072,-244.5 "/>
<text text-anchor="start" x="504" y="-229.3" font-family="Times,serif" font-size="14.00" fill="#000000">facebook</text>
<polyline fill="none" stroke="#000000" points="496,-222.5 720.4072,-222.5 "/>
<polyline fill="none" stroke="#000000" points="496,-198.5 720.4072,-198.5 "/>
<text text-anchor="start" x="504" y="-183.3" font-family="Times,serif" font-size="14.00" fill="#000000">_layout</text>
</g>
<!-- Users::PasswordsController -->
<g id="node12" class="node">
<title>Users::PasswordsController</title>
<path fill="none" stroke="#000000" d="M684,-.5C684,-.5 832.3242,-.5 832.3242,-.5 838.3242,-.5 844.3242,-6.5 844.3242,-12.5 844.3242,-12.5 844.3242,-80.5 844.3242,-80.5 844.3242,-86.5 838.3242,-92.5 832.3242,-92.5 832.3242,-92.5 684,-92.5 684,-92.5 678,-92.5 672,-86.5 672,-80.5 672,-80.5 672,-12.5 672,-12.5 672,-6.5 678,-.5 684,-.5"/>
<text text-anchor="middle" x="758.1621" y="-77.3" font-family="Times,serif" font-size="14.00" fill="#000000">Users::PasswordsController</text>
<polyline fill="none" stroke="#000000" points="672,-70.5 844.3242,-70.5 "/>
<polyline fill="none" stroke="#000000" points="672,-46.5 844.3242,-46.5 "/>
<polyline fill="none" stroke="#000000" points="672,-22.5 844.3242,-22.5 "/>
<text text-anchor="start" x="680" y="-7.3" font-family="Times,serif" font-size="14.00" fill="#000000">_layout</text>
</g>
<!-- Users::SessionsController -->
<g id="node13" class="node">
<title>Users::SessionsController</title>
<path fill="none" stroke="#000000" d="M684,-672.5C684,-672.5 821.4414,-672.5 821.4414,-672.5 827.4414,-672.5 833.4414,-678.5 833.4414,-684.5 833.4414,-684.5 833.4414,-752.5 833.4414,-752.5 833.4414,-758.5 827.4414,-764.5 821.4414,-764.5 821.4414,-764.5 684,-764.5 684,-764.5 678,-764.5 672,-758.5 672,-752.5 672,-752.5 672,-684.5 672,-684.5 672,-678.5 678,-672.5 684,-672.5"/>
<text text-anchor="middle" x="752.7207" y="-749.3" font-family="Times,serif" font-size="14.00" fill="#000000">Users::SessionsController</text>
<polyline fill="none" stroke="#000000" points="672,-742.5 833.4414,-742.5 "/>
<polyline fill="none" stroke="#000000" points="672,-718.5 833.4414,-718.5 "/>
<polyline fill="none" stroke="#000000" points="672,-694.5 833.4414,-694.5 "/>
<text text-anchor="start" x="680" y="-679.3" font-family="Times,serif" font-size="14.00" fill="#000000">_layout</text>
</g>
<!-- Users::UnlocksController -->
<g id="node14" class="node">
<title>Users::UnlocksController</title>
<path fill="none" stroke="#000000" d="M12,-368.5C12,-368.5 147.8691,-368.5 147.8691,-368.5 153.8691,-368.5 159.8691,-374.5 159.8691,-380.5 159.8691,-380.5 159.8691,-448.5 159.8691,-448.5 159.8691,-454.5 153.8691,-460.5 147.8691,-460.5 147.8691,-460.5 12,-460.5 12,-460.5 6,-460.5 0,-454.5 0,-448.5 0,-448.5 0,-380.5 0,-380.5 0,-374.5 6,-368.5 12,-368.5"/>
<text text-anchor="middle" x="79.9346" y="-445.3" font-family="Times,serif" font-size="14.00" fill="#000000">Users::UnlocksController</text>
<polyline fill="none" stroke="#000000" points="0,-438.5 159.8691,-438.5 "/>
<polyline fill="none" stroke="#000000" points="0,-414.5 159.8691,-414.5 "/>
<polyline fill="none" stroke="#000000" points="0,-390.5 159.8691,-390.5 "/>
<text text-anchor="start" x="8" y="-375.3" font-family="Times,serif" font-size="14.00" fill="#000000">_layout</text>
</g>
<!-- Users::ConfirmationsController -->
<g id="node15" class="node">
<title>Users::ConfirmationsController</title>
<path fill="none" stroke="#000000" d="M332,-624.5C332,-624.5 501.3242,-624.5 501.3242,-624.5 507.3242,-624.5 513.3242,-630.5 513.3242,-636.5 513.3242,-636.5 513.3242,-704.5 513.3242,-704.5 513.3242,-710.5 507.3242,-716.5 501.3242,-716.5 501.3242,-716.5 332,-716.5 332,-716.5 326,-716.5 320,-710.5 320,-704.5 320,-704.5 320,-636.5 320,-636.5 320,-630.5 326,-624.5 332,-624.5"/>
<text text-anchor="middle" x="416.6621" y="-701.3" font-family="Times,serif" font-size="14.00" fill="#000000">Users::ConfirmationsController</text>
<polyline fill="none" stroke="#000000" points="320,-694.5 513.3242,-694.5 "/>
<polyline fill="none" stroke="#000000" points="320,-670.5 513.3242,-670.5 "/>
<polyline fill="none" stroke="#000000" points="320,-646.5 513.3242,-646.5 "/>
<text text-anchor="start" x="328" y="-631.3" font-family="Times,serif" font-size="14.00" fill="#000000">_layout</text>
</g>
<!-- Users::RegistrationsController -->
<g id="node16" class="node">
<title>Users::RegistrationsController</title>
<path fill="none" stroke="#000000" d="M44,-32.5C44,-32.5 207.0898,-32.5 207.0898,-32.5 213.0898,-32.5 219.0898,-38.5 219.0898,-44.5 219.0898,-44.5 219.0898,-110.5 219.0898,-110.5 219.0898,-116.5 213.0898,-122.5 207.0898,-122.5 207.0898,-122.5 44,-122.5 44,-122.5 38,-122.5 32,-116.5 32,-110.5 32,-110.5 32,-44.5 32,-44.5 32,-38.5 38,-32.5 44,-32.5"/>
<text text-anchor="middle" x="125.5449" y="-107.3" font-family="Times,serif" font-size="14.00" fill="#000000">Users::RegistrationsController</text>
<polyline fill="none" stroke="#000000" points="32,-100.5 219.0898,-100.5 "/>
<text text-anchor="start" x="40" y="-85.3" font-family="Times,serif" font-size="14.00" fill="#000000">configure_sign_up_params</text>
<polyline fill="none" stroke="#000000" points="32,-78.5 219.0898,-78.5 "/>
<polyline fill="none" stroke="#000000" points="32,-54.5 219.0898,-54.5 "/>
<text text-anchor="start" x="40" y="-39.3" font-family="Times,serif" font-size="14.00" fill="#000000">_layout</text>
</g>
</g>
</svg>
