<?xml version="1.0" encoding="UTF-8" standalone="no"?>
<!DOCTYPE svg PUBLIC "-//W3C//DTD SVG 1.1//EN"
 "http://www.w3.org/Graphics/SVG/1.1/DTD/svg11.dtd">
<!-- Generated by graphviz version 2.40.1 (20161225.0304)
 -->
<!-- Title: models_diagram Pages: 1 -->
<svg width="712pt" height="225pt"
 viewBox="0.00 0.00 712.08 225.00" xmlns="http://www.w3.org/2000/svg" xmlns:xlink="http://www.w3.org/1999/xlink">
<g id="graph0" class="graph" transform="scale(1 1) rotate(0) translate(4 221)">
<title>models_diagram</title>
<polygon fill="transparent" stroke="transparent" points="-4,4 -4,-221 708.0835,-221 708.0835,4 -4,4"/>
<!-- _diagram_info -->
<g id="node1" class="node">
<title>_diagram_info</title>
<text text-anchor="start" x="8" y="-202.6" font-family="Times,serif" font-size="13.00" fill="#000000">Models diagram</text>
<text text-anchor="start" x="8" y="-189.6" font-family="Times,serif" font-size="13.00" fill="#000000">Date: Mar 18 2019 &#45; 10:40</text>
<text text-anchor="start" x="8" y="-176.6" font-family="Times,serif" font-size="13.00" fill="#000000">Migration version: 20190315141229</text>
<text text-anchor="start" x="8" y="-163.6" font-family="Times,serif" font-size="13.00" fill="#000000">Generated by RailRoady 1.5.3</text>
<text text-anchor="start" x="8" y="-150.6" font-family="Times,serif" font-size="13.00" fill="#000000">http://railroady.prestonlee.com</text>
</g>
<!-- Feedback -->
<g id="node2" class="node">
<title>Feedback</title>
<ellipse fill="none" stroke="#000000" cx="321.6877" cy="-18" rx="43.9819" ry="18"/>
<text text-anchor="middle" x="321.6877" y="-13.8" font-family="Times,serif" font-size="14.00" fill="#000000">Feedback</text>
</g>
<!-- Municipality -->
<g id="node3" class="node">
<title>Municipality</title>
<ellipse fill="none" stroke="#000000" cx="280.6877" cy="-180.5" rx="55.5854" ry="18"/>
<text text-anchor="middle" x="280.6877" y="-176.3" font-family="Times,serif" font-size="14.00" fill="#000000">Municipality</text>
</g>
<!-- Proyect -->
<g id="node6" class="node">
<title>Proyect</title>
<ellipse fill="none" stroke="#000000" cx="280.6877" cy="-90" rx="37.2421" ry="18"/>
<text text-anchor="middle" x="280.6877" y="-85.8" font-family="Times,serif" font-size="14.00" fill="#000000">Proyect</text>
</g>
<!-- Municipality&#45;&gt;Proyect -->
<g id="edge1" class="edge">
<title>Municipality&#45;&gt;Proyect</title>
<path fill="none" stroke="#854e94" d="M280.6877,-153.9687C280.6877,-142.8402 280.6877,-129.878 280.6877,-118.5429"/>
<ellipse fill="none" stroke="#854e94" cx="280.6878" cy="-158.186" rx="4" ry="4"/>
<polygon fill="#854e94" stroke="#854e94" points="280.6878,-118.2868 285.1877,-108.2867 280.6878,-113.2868 280.6877,-108.2868 280.6877,-108.2868 280.6877,-108.2868 280.6878,-113.2868 276.1877,-108.2868 280.6878,-118.2868 280.6878,-118.2868"/>
</g>
<!-- Ability -->
<g id="node4" class="node">
<title>Ability</title>
<polygon fill="none" stroke="#000000" points="410.3577,-198.5 355.0178,-198.5 355.0178,-162.5 410.3577,-162.5 410.3577,-198.5"/>
<text text-anchor="middle" x="382.6877" y="-176.3" font-family="Times,serif" font-size="14.00" fill="#000000">Ability</text>
</g>
<!-- AdminUser -->
<g id="node5" class="node">
<title>AdminUser</title>
<ellipse fill="none" stroke="#000000" cx="479.6877" cy="-180.5" rx="51.2415" ry="18"/>
<text text-anchor="middle" x="479.6877" y="-176.3" font-family="Times,serif" font-size="14.00" fill="#000000">AdminUser</text>
</g>
<!-- Proyect&#45;&gt;Feedback -->
<g id="edge2" class="edge">
<title>Proyect&#45;&gt;Feedback</title>
<path fill="none" stroke="#c6497e" d="M294.683,-65.423C298.4943,-58.73 302.6401,-51.4494 306.5135,-44.6475"/>
<ellipse fill="none" stroke="#c6497e" cx="292.5921" cy="-69.0949" rx="4" ry="4"/>
<polygon fill="#c6497e" stroke="#c6497e" points="306.6209,-44.4587 315.4798,-37.9957 309.0951,-40.1138 311.5694,-35.7689 311.5694,-35.7689 311.5694,-35.7689 309.0951,-40.1138 307.6589,-33.5421 306.6209,-44.4587 306.6209,-44.4587"/>
</g>
<!-- ApplicationRecord -->
<g id="node7" class="node">
<title>ApplicationRecord</title>
<ellipse fill="none" stroke="#000000" cx="626.6877" cy="-180.5" rx="77.2916" ry="18"/>
<text text-anchor="middle" x="626.6877" y="-176.3" font-family="Times,serif" font-size="14.00" fill="#000000">ApplicationRecord</text>
</g>
<!-- User -->
<g id="node8" class="node">
<title>User</title>
<ellipse fill="none" stroke="#000000" cx="362.6877" cy="-90" rx="27" ry="18"/>
<text text-anchor="middle" x="362.6877" y="-85.8" font-family="Times,serif" font-size="14.00" fill="#000000">User</text>
</g>
<!-- User&#45;&gt;Feedback -->
<g id="edge3" class="edge">
<title>User&#45;&gt;Feedback</title>
<path fill="none" stroke="#05c11b" d="M348.8652,-65.7263C345.0139,-58.9629 340.8095,-51.5797 336.8838,-44.6857"/>
<ellipse fill="none" stroke="#05c11b" cx="350.9919" cy="-69.4611" rx="4" ry="4"/>
<polygon fill="#05c11b" stroke="#05c11b" points="336.711,-44.3823 335.673,-33.4656 334.2368,-40.0374 331.7626,-35.6924 331.7626,-35.6924 331.7626,-35.6924 334.2368,-40.0374 327.8522,-37.9192 336.711,-44.3823 336.711,-44.3823"/>
</g>
</g>
</svg>
