<?xml version="1.0" encoding="UTF-8" standalone="no"?>
<!DOCTYPE svg PUBLIC "-//W3C//DTD SVG 1.1//EN"
 "http://www.w3.org/Graphics/SVG/1.1/DTD/svg11.dtd">
<!-- Generated by graphviz version 2.40.1 (20161225.0304)
 -->
<!-- Title: models_diagram Pages: 1 -->
<svg width="1135pt" height="551pt"
 viewBox="0.00 0.00 1135.08 551.00" xmlns="http://www.w3.org/2000/svg" xmlns:xlink="http://www.w3.org/1999/xlink">
<g id="graph0" class="graph" transform="scale(1 1) rotate(0) translate(4 547)">
<title>models_diagram</title>
<polygon fill="transparent" stroke="transparent" points="-4,4 -4,-547 1131.0835,-547 1131.0835,4 -4,4"/>
<!-- _diagram_info -->
<g id="node1" class="node">
<title>_diagram_info</title>
<text text-anchor="start" x="8" y="-486.6" font-family="Times,serif" font-size="13.00" fill="#000000">Models diagram</text>
<text text-anchor="start" x="8" y="-473.6" font-family="Times,serif" font-size="13.00" fill="#000000">Date: Mar 18 2019 &#45; 10:40</text>
<text text-anchor="start" x="8" y="-460.6" font-family="Times,serif" font-size="13.00" fill="#000000">Migration version: 20190315141229</text>
<text text-anchor="start" x="8" y="-447.6" font-family="Times,serif" font-size="13.00" fill="#000000">Generated by RailRoady 1.5.3</text>
<text text-anchor="start" x="8" y="-434.6" font-family="Times,serif" font-size="13.00" fill="#000000">http://railroady.prestonlee.com</text>
</g>
<!-- Feedback -->
<g id="node2" class="node">
<title>Feedback</title>
<path fill="none" stroke="#000000" d="M422.8254,-.5C422.8254,-.5 646.55,-.5 646.55,-.5 652.55,-.5 658.55,-6.5 658.55,-12.5 658.55,-12.5 658.55,-102.5 658.55,-102.5 658.55,-108.5 652.55,-114.5 646.55,-114.5 646.55,-114.5 422.8254,-114.5 422.8254,-114.5 416.8254,-114.5 410.8254,-108.5 410.8254,-102.5 410.8254,-102.5 410.8254,-12.5 410.8254,-12.5 410.8254,-6.5 416.8254,-.5 422.8254,-.5"/>
<text text-anchor="middle" x="534.6877" y="-99.3" font-family="Times,serif" font-size="14.00" fill="#000000">Feedback</text>
<polyline fill="none" stroke="#000000" points="410.8254,-92.5 658.55,-92.5 "/>
<text text-anchor="start" x="418.8254" y="-77.3" font-family="Times,serif" font-size="14.00" fill="#000000">id :bigint</text>
<text text-anchor="start" x="418.8254" y="-63.3" font-family="Times,serif" font-size="14.00" fill="#000000">content :character varying</text>
<text text-anchor="start" x="418.8254" y="-49.3" font-family="Times,serif" font-size="14.00" fill="#000000">user_id :bigint</text>
<text text-anchor="start" x="418.8254" y="-35.3" font-family="Times,serif" font-size="14.00" fill="#000000">proyect_id :bigint</text>
<text text-anchor="start" x="418.8254" y="-21.3" font-family="Times,serif" font-size="14.00" fill="#000000">created_at :timestamp without time zone</text>
<text text-anchor="start" x="418.8254" y="-7.3" font-family="Times,serif" font-size="14.00" fill="#000000">updated_at :timestamp without time zone</text>
</g>
<!-- Municipality -->
<g id="node3" class="node">
<title>Municipality</title>
<path fill="none" stroke="#000000" d="M237.053,-386.5C237.053,-386.5 532.3225,-386.5 532.3225,-386.5 538.3225,-386.5 544.3225,-392.5 544.3225,-398.5 544.3225,-398.5 544.3225,-530.5 544.3225,-530.5 544.3225,-536.5 538.3225,-542.5 532.3225,-542.5 532.3225,-542.5 237.053,-542.5 237.053,-542.5 231.053,-542.5 225.053,-536.5 225.053,-530.5 225.053,-530.5 225.053,-398.5 225.053,-398.5 225.053,-392.5 231.053,-386.5 237.053,-386.5"/>
<text text-anchor="middle" x="384.6877" y="-527.3" font-family="Times,serif" font-size="14.00" fill="#000000">Municipality</text>
<polyline fill="none" stroke="#000000" points="225.053,-520.5 544.3225,-520.5 "/>
<text text-anchor="start" x="233.053" y="-505.3" font-family="Times,serif" font-size="14.00" fill="#000000">updated_at :timestamp without time zone</text>
<text text-anchor="start" x="233.053" y="-491.3" font-family="Times,serif" font-size="14.00" fill="#000000">email :character varying</text>
<text text-anchor="start" x="233.053" y="-477.3" font-family="Times,serif" font-size="14.00" fill="#000000">encrypted_password :character varying</text>
<text text-anchor="start" x="233.053" y="-463.3" font-family="Times,serif" font-size="14.00" fill="#000000">reset_password_token :character varying</text>
<text text-anchor="start" x="233.053" y="-449.3" font-family="Times,serif" font-size="14.00" fill="#000000">reset_password_sent_at :timestamp without time zone</text>
<text text-anchor="start" x="233.053" y="-435.3" font-family="Times,serif" font-size="14.00" fill="#000000">remember_created_at :timestamp without time zone</text>
<text text-anchor="start" x="233.053" y="-421.3" font-family="Times,serif" font-size="14.00" fill="#000000">name :character varying</text>
<text text-anchor="start" x="233.053" y="-407.3" font-family="Times,serif" font-size="14.00" fill="#000000">created_at :timestamp without time zone</text>
<text text-anchor="start" x="233.053" y="-393.3" font-family="Times,serif" font-size="14.00" fill="#000000">id :bigint</text>
</g>
<!-- Proyect -->
<g id="node6" class="node">
<title>Proyect</title>
<path fill="none" stroke="#000000" d="M272.8254,-151.5C272.8254,-151.5 496.55,-151.5 496.55,-151.5 502.55,-151.5 508.55,-157.5 508.55,-163.5 508.55,-163.5 508.55,-337.5 508.55,-337.5 508.55,-343.5 502.55,-349.5 496.55,-349.5 496.55,-349.5 272.8254,-349.5 272.8254,-349.5 266.8254,-349.5 260.8254,-343.5 260.8254,-337.5 260.8254,-337.5 260.8254,-163.5 260.8254,-163.5 260.8254,-157.5 266.8254,-151.5 272.8254,-151.5"/>
<text text-anchor="middle" x="384.6877" y="-334.3" font-family="Times,serif" font-size="14.00" fill="#000000">Proyect</text>
<polyline fill="none" stroke="#000000" points="260.8254,-327.5 508.55,-327.5 "/>
<text text-anchor="start" x="268.8254" y="-312.3" font-family="Times,serif" font-size="14.00" fill="#000000">municipality_id :bigint</text>
<text text-anchor="start" x="268.8254" y="-298.3" font-family="Times,serif" font-size="14.00" fill="#000000">title :character varying</text>
<text text-anchor="start" x="268.8254" y="-284.3" font-family="Times,serif" font-size="14.00" fill="#000000">description :character varying</text>
<text text-anchor="start" x="268.8254" y="-270.3" font-family="Times,serif" font-size="14.00" fill="#000000">budget :character varying</text>
<text text-anchor="start" x="268.8254" y="-256.3" font-family="Times,serif" font-size="14.00" fill="#000000">address :character varying</text>
<text text-anchor="start" x="268.8254" y="-242.3" font-family="Times,serif" font-size="14.00" fill="#000000">latitude :double precision</text>
<text text-anchor="start" x="268.8254" y="-228.3" font-family="Times,serif" font-size="14.00" fill="#000000">longitude :double precision</text>
<text text-anchor="start" x="268.8254" y="-214.3" font-family="Times,serif" font-size="14.00" fill="#000000">start_date :date</text>
<text text-anchor="start" x="268.8254" y="-200.3" font-family="Times,serif" font-size="14.00" fill="#000000">finish_date :date</text>
<text text-anchor="start" x="268.8254" y="-186.3" font-family="Times,serif" font-size="14.00" fill="#000000">created_at :timestamp without time zone</text>
<text text-anchor="start" x="268.8254" y="-172.3" font-family="Times,serif" font-size="14.00" fill="#000000">updated_at :timestamp without time zone</text>
<text text-anchor="start" x="268.8254" y="-158.3" font-family="Times,serif" font-size="14.00" fill="#000000">id :bigint</text>
</g>
<!-- Municipality&#45;&gt;Proyect -->
<g id="edge1" class="edge">
<title>Municipality&#45;&gt;Proyect</title>
<path fill="none" stroke="#88bac3" d="M384.6877,-378.1453C384.6877,-372.1298 384.6877,-366.0238 384.6877,-359.9074"/>
<ellipse fill="none" stroke="#88bac3" cx="384.6878" cy="-382.3327" rx="4" ry="4"/>
<polygon fill="#88bac3" stroke="#88bac3" points="384.6878,-359.618 389.1877,-349.618 384.6878,-354.618 384.6877,-349.618 384.6877,-349.618 384.6877,-349.618 384.6878,-354.618 380.1877,-349.6181 384.6878,-359.618 384.6878,-359.618"/>
</g>
<!-- Ability -->
<g id="node4" class="node">
<title>Ability</title>
<polygon fill="none" stroke="#000000" points="561.8533,-442.5 561.8533,-486.5 617.5222,-486.5 617.5222,-442.5 561.8533,-442.5"/>
<text text-anchor="middle" x="589.6877" y="-471.3" font-family="Times,serif" font-size="14.00" fill="#000000">Ability</text>
<polyline fill="none" stroke="#000000" points="561.8533,-464.5 617.5222,-464.5 "/>
<text text-anchor="middle" x="589.6877" y="-449.3" font-family="Times,serif" font-size="14.00" fill="#000000"> </text>
</g>
<!-- AdminUser -->
<g id="node5" class="node">
<title>AdminUser</title>
<path fill="none" stroke="#000000" d="M647.053,-393.5C647.053,-393.5 942.3225,-393.5 942.3225,-393.5 948.3225,-393.5 954.3225,-399.5 954.3225,-405.5 954.3225,-405.5 954.3225,-523.5 954.3225,-523.5 954.3225,-529.5 948.3225,-535.5 942.3225,-535.5 942.3225,-535.5 647.053,-535.5 647.053,-535.5 641.053,-535.5 635.053,-529.5 635.053,-523.5 635.053,-523.5 635.053,-405.5 635.053,-405.5 635.053,-399.5 641.053,-393.5 647.053,-393.5"/>
<text text-anchor="middle" x="794.6877" y="-520.3" font-family="Times,serif" font-size="14.00" fill="#000000">AdminUser</text>
<polyline fill="none" stroke="#000000" points="635.053,-513.5 954.3225,-513.5 "/>
<text text-anchor="start" x="643.053" y="-498.3" font-family="Times,serif" font-size="14.00" fill="#000000">updated_at :timestamp without time zone</text>
<text text-anchor="start" x="643.053" y="-484.3" font-family="Times,serif" font-size="14.00" fill="#000000">email :character varying</text>
<text text-anchor="start" x="643.053" y="-470.3" font-family="Times,serif" font-size="14.00" fill="#000000">encrypted_password :character varying</text>
<text text-anchor="start" x="643.053" y="-456.3" font-family="Times,serif" font-size="14.00" fill="#000000">reset_password_token :character varying</text>
<text text-anchor="start" x="643.053" y="-442.3" font-family="Times,serif" font-size="14.00" fill="#000000">reset_password_sent_at :timestamp without time zone</text>
<text text-anchor="start" x="643.053" y="-428.3" font-family="Times,serif" font-size="14.00" fill="#000000">remember_created_at :timestamp without time zone</text>
<text text-anchor="start" x="643.053" y="-414.3" font-family="Times,serif" font-size="14.00" fill="#000000">created_at :timestamp without time zone</text>
<text text-anchor="start" x="643.053" y="-400.3" font-family="Times,serif" font-size="14.00" fill="#000000">id :bigint</text>
</g>
<!-- Proyect&#45;&gt;Feedback -->
<g id="edge2" class="edge">
<title>Proyect&#45;&gt;Feedback</title>
<path fill="none" stroke="#52a243" d="M466.702,-144.975C472.504,-137.5098 478.2495,-130.1173 483.7979,-122.9782"/>
<ellipse fill="none" stroke="#52a243" cx="464.1197" cy="-148.2975" rx="4" ry="4"/>
<polygon fill="#52a243" stroke="#52a243" points="484.0759,-122.6206 493.7656,-117.4863 487.1442,-118.6727 490.2125,-114.7248 490.2125,-114.7248 490.2125,-114.7248 487.1442,-118.6727 486.6594,-111.9634 484.0759,-122.6206 484.0759,-122.6206"/>
</g>
<!-- ApplicationRecord -->
<g id="node7" class="node">
<title>ApplicationRecord</title>
<ellipse fill="none" stroke="#000000" cx="1049.6877" cy="-464.5" rx="77.2916" ry="18"/>
<text text-anchor="middle" x="1049.6877" y="-460.3" font-family="Times,serif" font-size="14.00" fill="#000000">ApplicationRecord</text>
</g>
<!-- User -->
<g id="node8" class="node">
<title>User</title>
<path fill="none" stroke="#000000" d="M538.053,-158.5C538.053,-158.5 833.3225,-158.5 833.3225,-158.5 839.3225,-158.5 845.3225,-164.5 845.3225,-170.5 845.3225,-170.5 845.3225,-330.5 845.3225,-330.5 845.3225,-336.5 839.3225,-342.5 833.3225,-342.5 833.3225,-342.5 538.053,-342.5 538.053,-342.5 532.053,-342.5 526.053,-336.5 526.053,-330.5 526.053,-330.5 526.053,-170.5 526.053,-170.5 526.053,-164.5 532.053,-158.5 538.053,-158.5"/>
<text text-anchor="middle" x="685.6877" y="-327.3" font-family="Times,serif" font-size="14.00" fill="#000000">User</text>
<polyline fill="none" stroke="#000000" points="526.053,-320.5 845.3225,-320.5 "/>
<text text-anchor="start" x="534.053" y="-305.3" font-family="Times,serif" font-size="14.00" fill="#000000">uid :character varying</text>
<text text-anchor="start" x="534.053" y="-291.3" font-family="Times,serif" font-size="14.00" fill="#000000">email :character varying</text>
<text text-anchor="start" x="534.053" y="-277.3" font-family="Times,serif" font-size="14.00" fill="#000000">encrypted_password :character varying</text>
<text text-anchor="start" x="534.053" y="-263.3" font-family="Times,serif" font-size="14.00" fill="#000000">reset_password_token :character varying</text>
<text text-anchor="start" x="534.053" y="-249.3" font-family="Times,serif" font-size="14.00" fill="#000000">reset_password_sent_at :timestamp without time zone</text>
<text text-anchor="start" x="534.053" y="-235.3" font-family="Times,serif" font-size="14.00" fill="#000000">remember_created_at :timestamp without time zone</text>
<text text-anchor="start" x="534.053" y="-221.3" font-family="Times,serif" font-size="14.00" fill="#000000">name :character varying</text>
<text text-anchor="start" x="534.053" y="-207.3" font-family="Times,serif" font-size="14.00" fill="#000000">created_at :timestamp without time zone</text>
<text text-anchor="start" x="534.053" y="-193.3" font-family="Times,serif" font-size="14.00" fill="#000000">updated_at :timestamp without time zone</text>
<text text-anchor="start" x="534.053" y="-179.3" font-family="Times,serif" font-size="14.00" fill="#000000">provider :character varying</text>
<text text-anchor="start" x="534.053" y="-165.3" font-family="Times,serif" font-size="14.00" fill="#000000">id :bigint</text>
</g>
<!-- User&#45;&gt;Feedback -->
<g id="edge3" class="edge">
<title>User&#45;&gt;Feedback</title>
<path fill="none" stroke="#00a84d" d="M608.3351,-151.6321C600.6897,-141.8601 593.0695,-132.1204 585.7886,-122.8143"/>
<ellipse fill="none" stroke="#00a84d" cx="611.0399" cy="-155.0891" rx="4" ry="4"/>
<polygon fill="#00a84d" stroke="#00a84d" points="585.6474,-122.6339 583.0296,-111.985 582.5664,-118.6959 579.4854,-114.758 579.4854,-114.758 579.4854,-114.758 582.5664,-118.6959 575.9413,-117.5309 585.6474,-122.6339 585.6474,-122.6339"/>
</g>
</g>
</svg>
